<svg xmlns="http://www.w3.org/2000/svg" viewBox="0 0 120 120"><title>Asset 14</title><path d="M44.1,57.276A12,12,0,0,1,35.9,34.724" fill="#bbef4b" stroke="#7a4567" stroke-linecap="round" stroke-linejoin="round" stroke-width="2"/><path d="M75.9,57.276A12,12,0,1,0,84.1,34.724" fill="#bbef4b" stroke="#7a4567" stroke-linecap="round" stroke-linejoin="round" stroke-width="2"/><path d="M67.534,28a10.96,10.96,0,0,0-15.068,0" fill="none" stroke="#7a4567" stroke-linecap="round" stroke-linejoin="round" stroke-width="2"/><path d="M52.466,46a10.96,10.96,0,0,0,15.068,0" fill="none" stroke="#7a4567" stroke-linecap="round" stroke-linejoin="round" stroke-width="2"/><path d="M33.5,47.515a14.469,14.469,0,0,0,13,0" fill="none" stroke="#7a4567" stroke-linecap="round" stroke-miterlimit="10" stroke-width="2"/><path d="M53.5,38.515a14.469,14.469,0,0,0,13,0" fill="none" stroke="#7a4567" stroke-linecap="round" stroke-miterlimit="10" stroke-width="2"/><path d="M73.5,47.515a14.469,14.469,0,0,0,13,0" fill="none" stroke="#7a4567" stroke-linecap="round" stroke-miterlimit="10" stroke-width="2"/><rect width="120" height="120" fill="none"/></svg>