<svg xmlns="http://www.w3.org/2000/svg" viewBox="0 0 120 120"><title>Asset 17</title><path d="M60,63c-8,0-8-7-8-7s2.286-1,8-1,8,1,8,1S68,63,60,63Z" fill="#7a4567"/><path d="M55.894,58h2.211A.894.894,0,0,0,59,57.106V56.015a32.683,32.683,0,0,0-4,.311v.78A.894.894,0,0,0,55.894,58Z" fill="#fff"/><path d="M61.894,58h2.211A.894.894,0,0,0,65,57.106v-.78a32.685,32.685,0,0,0-4-.311v1.091A.894.894,0,0,0,61.894,58Z" fill="#fff"/><path d="M60,64c-8.9,0-9-7.92-9-8v-.654l.6-.262C51.7,55.04,54.145,54,60,54s8.3,1.04,8.4,1.084l.6.262V56C69,56.08,68.9,64,60,64Zm-6.933-7.293C53.317,58.3,54.492,62,60,62c5.548,0,6.7-3.7,6.938-5.292A27.493,27.493,0,0,0,60,56,27.471,27.471,0,0,0,53.067,56.707Z" fill="#7a4567"/><rect width="120" height="120" fill="none"/></svg>