<svg xmlns="http://www.w3.org/2000/svg" viewBox="0 0 120 120"><title>Asset 19</title><path d="M60,63c-8,0-8-7-8-7s2.286-1,8-1,8,1,8,1S68,63,60,63Z" fill="#7a4567"/><path d="M66,57.2v-.71A31.3,31.3,0,0,0,60,56a31.266,31.266,0,0,0-6,.494v.71c0,.44.267.8.6.8H56.4c.33,0,.6-.356.6-.8,0,.44.267.8.6.8H59.4c.33,0,.6-.356.6-.8,0,.44.267.8.6.8H62.4c.33,0,.6-.356.6-.8,0,.44.267.8.6.8H65.4C65.733,58,66,57.644,66,57.2Z" fill="#fff"/><path d="M63.9,60H56.1a1.078,1.078,0,0,0-.914.528A7.349,7.349,0,0,0,60,62a7.4,7.4,0,0,0,4.827-1.46A1.079,1.079,0,0,0,63.9,60Z" fill="#fff"/><path d="M60,64c-8.9,0-9-7.92-9-8v-.654l.6-.262C51.7,55.04,54.144,54,60,54s8.3,1.04,8.4,1.084l.6.262V56C69,56.08,68.9,64,60,64Zm-6.933-7.293C53.317,58.3,54.492,62,60,62c5.548,0,6.7-3.7,6.938-5.292A27.493,27.493,0,0,0,60,56,27.464,27.464,0,0,0,53.067,56.707Z" fill="#7a4567"/><rect width="120" height="120" fill="none"/></svg>