<svg xmlns="http://www.w3.org/2000/svg" viewBox="0 0 120 120"><title>Asset 16</title><path d="M60,63c-8,0-8-7-8-7s2.286-1,8-1,8,1,8,1S68,63,60,63Z" fill="#7a4567"/><path d="M61.806,60H58.194A1.154,1.154,0,0,0,57,61.11v.419A8.941,8.941,0,0,0,60,62a9.051,9.051,0,0,0,3-.465V61.11A1.154,1.154,0,0,0,61.806,60Z" fill="#fff"/><path d="M54.8,58.2H57.2a.8.8,0,0,0,.8-.8V56.05a27.725,27.725,0,0,0-4,.444v.914A.8.8,0,0,0,54.8,58.2Z" fill="#fff"/><path d="M60,64c-8.9,0-9-7.92-9-8a1,1,0,0,1,.6-.916C51.7,55.04,54.145,54,60,54s8.3,1.04,8.4,1.084A1,1,0,0,1,69,56C69,56.08,68.9,64,60,64Zm-6.933-7.293C53.317,58.3,54.492,62,60,62c5.548,0,6.7-3.7,6.938-5.292A27.493,27.493,0,0,0,60,56,27.471,27.471,0,0,0,53.067,56.707Z" fill="#7a4567"/><rect width="120" height="120" fill="none"/></svg>