<svg xmlns="http://www.w3.org/2000/svg" viewBox="0 0 120 120"><title>Asset 61</title><circle cx="24" cy="80" r="3" fill="#7dc3c7"/><circle cx="30" cy="76" r="3" fill="#7dc3c7"/><path d="M33,70a1.995,1.995,0,0,0,.24-3.976q-1.1.92-2.219,1.762A1.917,1.917,0,0,0,33,70Z" fill="#7dc3c7"/><path d="M17,78a4,4,0,0,0,4-4,3.944,3.944,0,0,0-.054-.532,32.388,32.388,0,0,1-7.687,1.912A3.99,3.99,0,0,0,17,78Z" fill="#7dc3c7"/><path d="M19,75a2,2,0,1,0,2.755-1.85c-.865.354-1.7.655-2.512.914A1.977,1.977,0,0,0,19,75Z" fill="#7dc3c7"/><path d="M9.5,75.634c-.394.01-.773.017-1.118.021a12.212,12.212,0,0,0-2.4.159l0,.021c.232,1.395,1.822,3.157,4.148,4.6.055.034.13.077.192.115A3.475,3.475,0,0,0,9.5,75.634Z" fill="#7dc3c7"/><path d="M18,79a5.99,5.99,0,0,0-5.1,2.843,26.638,26.638,0,0,0,10.984,2.018A6,6,0,0,0,18,79Z" fill="#7dc3c7"/><path d="M17,79.5a3.5,3.5,0,0,0-7,0,3.465,3.465,0,0,0,.144.939,22.206,22.206,0,0,0,4.9,2.189A3.489,3.489,0,0,0,17,79.5Z" fill="#7dc3c7"/><path d="M31.942,82.54a2,2,0,1,0-3.883.92,32.8,32.8,0,0,0,3.862-.872Z" fill="#7dc3c7"/><path d="M25.5,74a1.5,1.5,0,0,0,.493-2.91c-.657.37-1.3.707-1.935,1.019A1.48,1.48,0,0,0,25.5,74Z" fill="#7dc3c7"/><rect width="120" height="120" fill="none"/></svg>