<svg xmlns="http://www.w3.org/2000/svg" viewBox="0 0 120 120"><title>Asset 64</title><circle cx="98.5" cy="60.5" r="2.5" fill="#ff6e26"/><circle cx="92" cy="59" r="2" fill="#ff6e26"/><circle cx="86" cy="56" r="2" fill="#ff6e26"/><path d="M103.5,51a3.468,3.468,0,0,1-2.223-.818,28.906,28.906,0,0,0,5.483-3.932A3.479,3.479,0,0,1,103.5,51Z" fill="#ff6e26"/><path d="M109.741,43.712c1.117.936,1.381,3.043.712,5.692a3.484,3.484,0,0,1-5.266-1.826c1.034-.822,1.9-1.613,2.61-2.266A12.838,12.838,0,0,1,109.741,43.712Z" fill="#ff6e26"/><path d="M108,52.5a4.5,4.5,0,0,1-9,0,4.449,4.449,0,0,1,.225-1.336,24.848,24.848,0,0,0,5.262-3.048A4.5,4.5,0,0,1,108,52.5Z" fill="#ff6e26"/><path d="M98,54.5a3.5,3.5,0,0,1-7,0,3.462,3.462,0,0,1,.377-1.551,23.844,23.844,0,0,0,5.549-.965A3.483,3.483,0,0,1,98,54.5Z" fill="#ff6e26"/><path d="M102.451,61.455A6.985,6.985,0,0,1,109,52c.184,0,.365.014.545.028A26.629,26.629,0,0,1,102.451,61.455Z" fill="#ff6e26"/><path d="M102,60a3.969,3.969,0,0,1,1.653.367,24.948,24.948,0,0,1-5.607,4.089A3.941,3.941,0,0,1,98,64,4,4,0,0,1,102,60Z" fill="#ff6e26"/><path d="M90.276,66.258l-.19-.142a2.51,2.51,0,1,1,4.884-.313,21.151,21.151,0,0,1-3.986.976C90.746,66.608,90.511,66.434,90.276,66.258Z" fill="#ff6e26"/><rect width="120" height="120" fill="none"/></svg>