<svg xmlns="http://www.w3.org/2000/svg" viewBox="0 0 120 120"><title>Asset 62</title><circle cx="96" cy="80" r="3" fill="#7dc3c7"/><circle cx="90" cy="76" r="3" fill="#7dc3c7"/><path d="M87,70a1.995,1.995,0,0,1-.24-3.976q1.1.92,2.219,1.762A1.917,1.917,0,0,1,87,70Z" fill="#7dc3c7"/><path d="M103,78a4,4,0,0,1-4-4,3.944,3.944,0,0,1,.054-.532,32.388,32.388,0,0,0,7.687,1.912A3.99,3.99,0,0,1,103,78Z" fill="#7dc3c7"/><path d="M101,75a2,2,0,1,1-2.755-1.85c.865.354,1.7.655,2.512.914A1.977,1.977,0,0,1,101,75Z" fill="#7dc3c7"/><path d="M110.5,75.634c.394.01.773.017,1.118.021a12.212,12.212,0,0,1,2.4.159l0,.021c-.232,1.395-1.822,3.157-4.148,4.6-.055.034-.13.077-.192.115a3.475,3.475,0,0,1,.827-4.914Z" fill="#7dc3c7"/><path d="M102,79a5.99,5.99,0,0,1,5.1,2.843,26.638,26.638,0,0,1-10.984,2.018A6,6,0,0,1,102,79Z" fill="#7dc3c7"/><path d="M103,79.5a3.5,3.5,0,0,1,7,0,3.465,3.465,0,0,1-.144.939,22.206,22.206,0,0,1-4.9,2.189A3.489,3.489,0,0,1,103,79.5Z" fill="#7dc3c7"/><path d="M88.058,82.54a2,2,0,1,1,3.883.92,32.8,32.8,0,0,1-3.862-.872Z" fill="#7dc3c7"/><path d="M94.5,74a1.5,1.5,0,0,1-.493-2.91c.657.37,1.3.707,1.935,1.019A1.48,1.48,0,0,1,94.5,74Z" fill="#7dc3c7"/><rect width="120" height="120" fill="none"/></svg>