<svg xmlns="http://www.w3.org/2000/svg" viewBox="0 0 120 120"><title>Asset 59</title><circle cx="44.5" cy="90.5" r="3.5" fill="#ab6ef0"/><circle cx="36.5" cy="92.5" r="2.5" fill="#ab6ef0"/><circle cx="40" cy="83" r="2" fill="#ab6ef0"/><circle cx="51" cy="84" r="2" fill="#ab6ef0"/><circle cx="49" cy="78" r="2" fill="#ab6ef0"/><path d="M38,79a2,2,0,0,0,0-4c-.049,0-.094.011-.142.014q-.8,1.479-1.573,3A1.992,1.992,0,0,0,38,79Z" fill="#ab6ef0"/><path d="M32,91a2.993,2.993,0,0,0,.992-5.819q-1.224,2.914-2.171,5.577A2.987,2.987,0,0,0,32,91Z" fill="#ab6ef0"/><path d="M28.5,103a4.49,4.49,0,0,0,1.168-8.828,70.954,70.954,0,0,0-2.2,8.7A4.48,4.48,0,0,0,28.5,103Z" fill="#ab6ef0"/><path d="M32,104.5a3.49,3.49,0,0,0-4.176-3.432,35.778,35.778,0,0,0-.9,6.542A3.462,3.462,0,0,0,28.5,108,3.5,3.5,0,0,0,32,104.5Z" fill="#ab6ef0"/><path d="M32.5,104a3.5,3.5,0,0,0-3.5,3.5,3.46,3.46,0,0,0,.444,1.673,43.324,43.324,0,0,0,5.721-3.918A3.476,3.476,0,0,0,32.5,104Z" fill="#ab6ef0"/><path d="M37,94a4.99,4.99,0,0,0-.261,9.974c1.661-1.4,3.439-3.028,5.251-4.871,0-.035.01-.068.01-.1A5,5,0,0,0,37,94Z" fill="#ab6ef0"/><path d="M44.656,96.254a2.493,2.493,0,1,0-3.277,3.469C42.461,98.647,43.559,97.485,44.656,96.254Z" fill="#ab6ef0"/><rect width="120" height="120" fill="none"/></svg>